<?xml version="1.0" standalone="no"?>
<!DOCTYPE svg PUBLIC "-//W3C//DTD SVG 20010904//EN"
 "http://www.w3.org/TR/2001/REC-SVG-20010904/DTD/svg10.dtd">
<svg version="1.0" xmlns="http://www.w3.org/2000/svg"
 width="4675.000000pt" height="4675.000000pt" viewBox="0 0 4675.000000 4675.000000"
 preserveAspectRatio="xMidYMid meet">
<metadata>
Created by potrace 1.14, written by Peter Selinger 2001-2017
</metadata>
<g transform="translate(0.000000,4675.000000) scale(0.100000,-0.100000)"
fill="#000000" stroke="none">
<path d="M12165 32785 c-261 -19 -379 -31 -680 -70 -232 -30 -577 -91 -795
-141 -177 -40 -202 -47 -325 -80 -33 -9 -78 -20 -100 -26 -40 -10 -88 -24
-175 -48 -25 -7 -76 -23 -115 -35 -38 -12 -110 -35 -160 -50 -49 -16 -94 -32
-100 -35 -5 -4 -21 -10 -35 -13 -26 -5 -210 -70 -245 -86 -11 -5 -51 -21 -90
-36 -38 -15 -79 -31 -90 -35 -11 -5 -56 -23 -100 -40 -44 -18 -100 -41 -125
-52 -25 -11 -58 -26 -75 -33 -174 -76 -491 -229 -644 -312 -191 -104 -230
-126 -280 -157 -22 -15 -43 -26 -46 -26 -10 0 -407 -251 -549 -347 -164 -111
-158 -107 -340 -244 -76 -57 -150 -113 -165 -124 -304 -225 -785 -668 -1105
-1015 -333 -363 -515 -585 -778 -950 -129 -179 -398 -589 -398 -606 0 -3 -15
-29 -34 -57 -18 -29 -48 -80 -66 -112 -18 -33 -42 -76 -53 -95 -10 -19 -23
-39 -27 -45 -9 -12 -120 -225 -188 -360 -70 -141 -192 -401 -192 -410 0 -3
-12 -30 -26 -62 -15 -32 -33 -74 -41 -93 -8 -19 -19 -45 -24 -57 -15 -38 -26
-65 -54 -138 -15 -38 -32 -81 -37 -95 -34 -81 -146 -409 -188 -550 -51 -169
-71 -237 -82 -275 -6 -22 -16 -60 -23 -85 -7 -25 -18 -65 -24 -90 -5 -25 -21
-92 -35 -150 -55 -233 -107 -495 -135 -675 -37 -249 -42 -289 -71 -545 -37
-326 -53 -836 -40 -1256 12 -376 19 -476 61 -839 18 -153 52 -382 75 -505 8
-41 19 -97 24 -125 23 -129 68 -332 123 -560 58 -238 215 -738 304 -965 14
-36 29 -74 33 -85 25 -65 45 -115 61 -152 11 -24 19 -46 19 -49 0 -3 7 -22 16
-42 9 -21 22 -50 29 -67 7 -16 29 -64 47 -105 19 -41 45 -100 59 -130 60 -136
253 -516 344 -675 15 -27 36 -63 45 -80 26 -47 170 -287 186 -309 8 -12 65
-97 127 -191 166 -249 212 -314 406 -571 48 -64 313 -384 371 -449 402 -449
786 -815 1215 -1157 160 -128 393 -301 517 -384 42 -29 105 -72 140 -96 76
-53 385 -248 393 -248 3 0 41 -23 85 -50 44 -28 82 -50 85 -50 2 0 46 -24 97
-53 185 -106 795 -407 824 -407 3 0 31 -12 62 -26 85 -38 86 -39 242 -100 195
-76 569 -207 710 -247 83 -24 230 -66 270 -77 19 -5 60 -16 90 -25 64 -17 333
-82 370 -88 14 -3 59 -12 100 -22 41 -9 98 -20 125 -25 28 -4 97 -17 155 -28
194 -37 437 -70 745 -102 517 -53 1311 -53 1830 0 336 35 471 54 765 106 225
41 410 81 695 150 228 55 572 163 930 291 39 13 79 28 90 33 11 5 67 27 125
50 58 22 114 45 125 49 57 25 97 42 168 75 43 20 81 36 84 36 12 0 478 229
583 286 36 20 102 55 146 79 45 24 118 66 164 94 45 28 84 51 86 51 8 0 391
246 504 323 169 115 401 289 584 436 65 53 133 107 151 122 124 95 405 358
654 608 460 464 853 956 1244 1556 l72 110 2510 0 2510 0 72 -110 c394 -605
782 -1091 1245 -1556 274 -276 493 -480 663 -617 28 -22 79 -64 115 -93 77
-62 58 -48 194 -155 60 -47 121 -93 135 -102 14 -9 60 -41 100 -72 139 -103
667 -450 685 -450 2 0 41 -23 86 -51 46 -28 119 -70 164 -94 44 -24 110 -59
146 -79 68 -37 438 -221 525 -261 28 -12 82 -36 120 -53 39 -17 95 -42 125
-55 30 -14 109 -46 175 -71 66 -26 129 -51 140 -56 52 -22 255 -92 475 -164
207 -68 291 -93 435 -131 93 -25 109 -29 185 -47 25 -5 56 -14 70 -18 14 -5
59 -15 100 -24 41 -8 129 -27 195 -40 661 -138 1240 -196 1944 -196 413 0 754
19 1091 60 200 25 330 42 375 50 28 5 93 16 145 25 52 9 115 20 140 25 25 5
72 14 105 20 139 27 396 85 540 124 33 9 76 21 95 26 19 5 73 20 120 34 47 13
112 32 145 41 33 10 125 40 205 67 80 27 185 63 235 79 49 17 164 60 255 95
167 66 177 70 240 97 19 9 58 25 85 37 126 54 283 128 485 229 203 102 228
115 338 178 51 29 95 53 97 53 3 0 41 22 85 50 44 27 82 50 85 50 7 0 315 193
375 235 25 17 88 61 140 97 732 499 1451 1166 2008 1863 150 187 157 197 249
322 105 144 200 281 300 433 42 63 84 127 94 142 11 15 19 32 19 38 0 5 3 10
8 10 4 0 12 9 17 20 8 16 47 82 146 248 9 15 31 54 49 87 18 33 36 65 41 70
12 16 271 531 298 595 14 30 38 84 54 120 53 118 64 144 116 275 29 72 56 139
61 150 4 11 14 36 20 55 7 19 19 49 26 65 7 17 24 66 39 110 15 44 30 89 35
100 13 32 96 286 111 340 4 17 15 55 24 85 9 30 25 87 35 125 10 39 26 97 35
130 9 33 20 76 25 95 4 19 17 73 28 120 11 47 23 96 25 110 3 14 14 70 26 125
12 55 25 123 31 150 5 28 15 75 21 105 12 62 19 105 48 310 59 408 78 637 91
1060 12 419 -3 886 -40 1250 -23 226 -71 561 -105 735 -8 44 -19 103 -24 130
-14 84 -74 352 -111 495 -50 199 -122 442 -186 635 -44 134 -93 273 -108 310
-7 17 -19 46 -26 65 -6 19 -16 44 -20 55 -36 92 -44 114 -55 140 -7 17 -32 75
-55 130 -113 274 -304 665 -457 935 -11 19 -34 60 -51 90 -16 30 -55 96 -86
145 -31 50 -59 97 -63 105 -17 37 -258 403 -336 510 -115 158 -223 300 -327
430 -101 127 -154 191 -275 330 -332 380 -791 821 -1170 1124 -66 53 -136 109
-155 124 -76 61 -343 254 -475 344 -139 94 -540 348 -550 348 -3 0 -24 11 -46
26 -40 25 -55 33 -159 91 -51 28 -227 121 -310 164 -91 46 -361 173 -455 214
-16 7 -50 22 -75 33 -25 11 -81 34 -125 52 -44 17 -89 35 -100 40 -19 7 -134
52 -180 70 -11 4 -38 15 -60 23 -50 19 -182 65 -320 111 -74 24 -229 73 -280
87 -16 5 -52 15 -80 22 -27 8 -68 19 -90 25 -22 6 -69 18 -105 27 -36 10 -76
21 -90 25 -14 4 -61 16 -105 25 -44 9 -93 21 -110 25 -41 12 -357 74 -480 94
-55 9 -122 21 -150 26 -45 8 -173 25 -375 50 -145 18 -287 30 -505 45 -193 13
-1578 15 -11220 14 -8744 -2 -11037 -4 -11180 -14z m22095 -4360 c390 -61 730
-248 993 -545 98 -111 211 -297 288 -475 30 -71 69 -220 91 -350 17 -102 17
-388 0 -480 -109 -588 -428 -1002 -962 -1248 -101 -46 -176 -69 -350 -106
-126 -27 -441 -30 -570 -6 -171 33 -354 94 -465 155 -16 9 -51 28 -76 42 -203
113 -443 346 -565 548 -116 194 -176 354 -225 600 -19 95 -17 433 4 535 93
463 323 817 697 1072 137 93 347 187 515 228 179 45 448 58 625 30z m-21790
-144 c25 -7 68 -17 95 -23 62 -13 185 -54 245 -80 112 -49 142 -66 250 -137
320 -210 586 -588 659 -936 6 -27 16 -70 23 -95 9 -33 13 -270 17 -890 l6
-845 820 -6 c815 -6 867 -9 1005 -44 105 -27 123 -32 170 -49 25 -10 54 -20
65 -23 34 -10 197 -98 259 -139 32 -21 75 -50 95 -63 20 -13 92 -81 161 -150
138 -139 221 -254 296 -410 69 -143 87 -192 118 -321 60 -246 63 -719 5 -955
-33 -137 -99 -308 -162 -420 -80 -144 -273 -367 -402 -465 -148 -112 -301
-195 -464 -250 -228 -77 -268 -80 -1163 -80 -427 0 -783 -3 -792 -6 -14 -6
-16 -86 -16 -809 0 -840 -1 -860 -45 -1041 -33 -134 -119 -337 -180 -428 -14
-20 -25 -39 -25 -41 0 -15 -117 -156 -198 -239 -142 -145 -262 -232 -435 -315
-142 -69 -247 -103 -416 -135 -117 -22 -656 -23 -763 -1 -196 40 -269 64 -428
139 -81 39 -130 67 -191 111 -29 22 -61 45 -70 50 -9 6 -53 43 -97 83 -223
203 -385 462 -462 742 -53 194 -53 177 -57 1055 -2 451 -7 823 -11 827 -4 4
-383 9 -842 11 -800 3 -839 4 -925 24 -171 39 -231 60 -380 133 -316 153 -609
457 -743 770 -105 244 -132 401 -132 760 1 293 17 420 80 609 145 436 495 802
923 965 111 42 270 80 393 95 59 7 368 11 863 11 610 0 771 3 771 13 0 6 1
379 3 827 3 620 7 829 17 875 11 52 25 109 59 241 19 72 109 256 176 359 134
204 292 359 494 485 195 121 401 193 631 220 95 12 646 4 700 -9z m18635
-3097 c50 -9 115 -22 145 -31 30 -8 69 -18 85 -23 17 -4 44 -13 60 -20 17 -7
39 -16 50 -19 85 -30 285 -143 373 -212 209 -163 379 -373 487 -603 118 -251
161 -461 152 -745 -3 -97 -11 -196 -17 -221 -6 -25 -15 -67 -21 -95 -11 -53
-35 -137 -49 -170 -4 -11 -20 -51 -36 -90 -107 -266 -300 -508 -556 -698 -20
-15 -40 -27 -43 -27 -4 0 -21 -10 -38 -22 -18 -13 -41 -28 -52 -34 -11 -6 -40
-22 -65 -35 -123 -69 -294 -126 -485 -161 -94 -17 -429 -17 -515 0 -284 59
-440 121 -650 260 -179 119 -394 345 -487 512 -59 106 -72 132 -103 205 -91
222 -120 370 -120 625 0 284 38 458 149 695 117 246 287 454 504 613 215 158
402 238 697 298 116 24 389 22 535 -2z m6445 4 c184 -30 377 -93 510 -166 25
-14 61 -34 80 -45 120 -67 299 -221 408 -351 208 -249 323 -515 367 -841 54
-405 -56 -829 -302 -1163 -67 -92 -244 -271 -328 -333 -162 -120 -296 -190
-475 -248 -190 -63 -280 -76 -505 -76 -232 0 -315 13 -525 82 -309 102 -611
328 -804 602 -75 106 -171 296 -211 416 -104 311 -111 660 -19 975 8 30 18 65
21 78 3 12 9 25 14 28 5 3 9 13 9 22 1 29 102 221 174 330 114 173 341 387
513 483 190 107 320 155 537 201 120 25 402 28 536 6z m-3195 -3246 c382 -86
700 -282 947 -587 103 -127 210 -325 260 -480 62 -194 83 -325 83 -525 0 -273
-54 -505 -171 -731 -47 -91 -53 -102 -113 -194 -67 -102 -272 -314 -367 -379
-92 -63 -146 -96 -197 -125 -71 -39 -216 -101 -237 -101 -9 0 -20 -4 -25 -9
-12 -11 -194 -55 -286 -70 -86 -14 -358 -14 -451 0 -87 13 -253 55 -323 82
-27 10 -59 21 -70 24 -11 4 -62 28 -114 55 -352 182 -613 462 -764 818 -37 89
-48 120 -66 190 -49 182 -54 229 -54 440 0 155 4 225 17 285 23 111 53 222 72
270 9 22 20 49 24 60 12 31 73 155 102 206 113 201 333 428 538 555 194 120
451 212 670 238 19 2 125 3 235 1 155 -2 220 -8 290 -23z"/>
</g>
</svg>
